<svg width="12" height="10" viewBox="0 0 12 10" fill="none" xmlns="http://www.w3.org/2000/svg">
<path fill-rule="evenodd" clip-rule="evenodd" d="M11.5684 0.981455C11.7325 1.14554 11.8246 1.36806 11.8246 1.60008C11.8246 1.8321 11.7325 2.05462 11.5684 2.21871L5.01002 8.77712C4.92335 8.86381 4.82045 8.93258 4.7072 8.9795C4.59395 9.02642 4.47256 9.05056 4.34998 9.05056C4.22739 9.05056 4.10601 9.02642 3.99275 8.9795C3.8795 8.93258 3.7766 8.86381 3.68993 8.77712L0.431434 5.51921C0.347862 5.43849 0.281203 5.34194 0.235345 5.23518C0.189487 5.12843 0.165349 5.01361 0.16434 4.89743C0.16333 4.78125 0.185469 4.66603 0.229465 4.5585C0.273461 4.45096 0.338432 4.35327 0.420588 4.27111C0.502744 4.18895 0.60044 4.12398 0.707974 4.07999C0.815508 4.03599 0.930728 4.01385 1.04691 4.01486C1.16309 4.01587 1.27791 4.04001 1.38466 4.08587C1.49142 4.13172 1.58797 4.19838 1.66868 4.28196L4.34968 6.96296L10.3306 0.981455C10.4119 0.900145 10.5083 0.835643 10.6145 0.791635C10.7207 0.747627 10.8346 0.724976 10.9495 0.724976C11.0645 0.724976 11.1783 0.747627 11.2845 0.791635C11.3907 0.835643 11.4872 0.900145 11.5684 0.981455Z" fill="white"/>
</svg>
