<svg width="18" height="19" viewBox="0 0 18 19" fill="none" xmlns="http://www.w3.org/2000/svg">
<path d="M15.096 13.566V15.25C15.096 15.3527 15.1347 15.4427 15.212 15.52C15.2887 15.596 15.3783 15.634 15.481 15.634C15.5837 15.634 15.6733 15.5957 15.75 15.519C15.8273 15.4423 15.866 15.3527 15.866 15.25V12.654C15.866 12.546 15.8253 12.4517 15.744 12.371C15.6633 12.2903 15.5693 12.25 15.462 12.25H12.866C12.7633 12.25 12.6733 12.2887 12.596 12.366C12.5193 12.4427 12.481 12.5323 12.481 12.635C12.481 12.737 12.5193 12.8267 12.596 12.904C12.6733 12.9807 12.7633 13.019 12.866 13.019H14.55L12.292 15.277C12.218 15.3517 12.178 15.4397 12.172 15.541C12.1653 15.6417 12.2053 15.7357 12.292 15.823C12.3713 15.8977 12.4637 15.935 12.569 15.935C12.6743 15.935 12.7643 15.8977 12.839 15.823L15.096 13.566ZM14 18.116C12.886 18.116 11.941 17.7277 11.165 16.951C10.3883 16.175 10 15.23 10 14.116C10 13.002 10.3883 12.0567 11.165 11.28C11.9417 10.5033 12.8867 10.1153 14 10.116C15.1133 10.1167 16.0587 10.5047 16.836 11.28C17.6133 12.0553 18.0013 13.0007 18 14.116C18 15.2293 17.612 16.1743 16.836 16.951C16.0587 17.7277 15.1133 18.116 14 18.116ZM4 4.73H12C12.142 4.73 12.2607 4.682 12.356 4.586C12.452 4.49 12.5 4.371 12.5 4.229C12.5 4.087 12.452 3.96833 12.356 3.873C12.26 3.77767 12.1413 3.73033 12 3.731H4C3.858 3.731 3.73933 3.779 3.644 3.875C3.54867 3.971 3.50067 4.09 3.5 4.232C3.49933 4.374 3.54733 4.49267 3.644 4.588C3.74067 4.68333 3.85933 4.73067 4 4.73ZM1.616 16C1.17133 16 0.791 15.8417 0.475 15.525C0.159 15.2083 0.000666667 14.8287 0 14.386V1.615C0 1.171 0.158333 0.791 0.475 0.475C0.791667 0.159 1.17167 0.000666667 1.615 0H14.385C14.829 0 15.209 0.158333 15.525 0.475C15.841 0.791667 15.9993 1.17167 16 1.615V6.623C16 6.87433 15.907 7.07 15.721 7.21C15.535 7.35 15.3197 7.39533 15.075 7.346C14.907 7.30133 14.7323 7.271 14.551 7.255C14.3697 7.239 14.186 7.23067 14 7.23C13.6627 7.23 13.3347 7.25667 13.016 7.31C12.698 7.36333 12.385 7.43867 12.077 7.536C12.0023 7.51933 11.919 7.509 11.827 7.505C11.7357 7.501 11.6523 7.499 11.577 7.499H4C3.858 7.499 3.73933 7.547 3.644 7.643C3.54867 7.739 3.50067 7.858 3.5 8C3.49933 8.142 3.54733 8.26067 3.644 8.356C3.74067 8.45133 3.85933 8.49933 4 8.5H10.087C9.58167 8.84733 9.13767 9.255 8.755 9.723C8.37233 10.191 8.05733 10.7063 7.81 11.269H4C3.858 11.269 3.73933 11.317 3.644 11.413C3.548 11.509 3.5 11.628 3.5 11.77C3.5 11.912 3.548 12.0307 3.644 12.126C3.74 12.2213 3.85867 12.269 4 12.269H7.46C7.388 12.551 7.33167 12.8353 7.291 13.122C7.251 13.4087 7.231 13.7013 7.231 14C7.231 14.1667 7.23467 14.3423 7.242 14.527C7.25 14.7117 7.27 14.9007 7.302 15.094C7.334 15.326 7.28233 15.535 7.147 15.721C7.01167 15.907 6.82867 16 6.598 16H1.616Z" fill="currentColor"/>
</svg>
