<svg width="178" height="33" viewBox="0 0 178 33" fill="none" xmlns="http://www.w3.org/2000/svg">
<path d="M70.5394 9.73925C71.1818 9.73925 71.8242 9.79947 72.4666 9.91992C73.109 10.0203 73.7213 10.1709 74.3034 10.3716C74.9057 10.5523 75.4578 10.7831 75.9596 11.0642C76.4816 11.3452 76.9333 11.6564 77.3147 11.9977L76.1102 13.8044C75.2871 13.1821 74.444 12.7003 73.5807 12.359C72.7376 12.0178 71.8242 11.8471 70.8405 11.8471C70.1178 11.8471 69.4553 11.9676 68.8531 12.2085C68.2508 12.4293 67.7289 12.8007 67.2872 13.3226C66.8456 13.8245 66.4943 14.4769 66.2333 15.2799C65.9924 16.0829 65.8719 17.0465 65.8719 18.1707C65.8719 19.2949 65.9924 20.2585 66.2333 21.0615C66.4943 21.8645 66.8556 22.527 67.3173 23.049C67.7791 23.5508 68.3311 23.9222 68.9735 24.1631C69.636 24.384 70.3587 24.4944 71.1416 24.4944C72.1253 24.4944 73.0387 24.3237 73.8819 23.9825C74.7451 23.6412 75.5882 23.1594 76.4113 22.5371L77.6158 24.3438C77.2344 24.6851 76.7827 24.9962 76.2608 25.2773C75.7589 25.5583 75.2068 25.7992 74.6046 26C74.0224 26.1807 73.4101 26.3212 72.7677 26.4216C72.1253 26.542 71.4829 26.6023 70.8405 26.6023C69.4152 26.6023 68.1103 26.4115 66.9259 26.0301C65.7615 25.6688 64.7678 25.1368 63.9447 24.4341C63.1217 23.7114 62.4793 22.8281 62.0175 21.7842C61.5759 20.7403 61.3551 19.5358 61.3551 18.1707C61.3551 16.8257 61.5759 15.6313 62.0175 14.5874C62.4793 13.5234 63.1116 12.6401 63.9146 11.9375C64.7176 11.2148 65.6812 10.6727 66.8054 10.3114C67.9296 9.92996 69.1743 9.73925 70.5394 9.73925ZM88.9033 24.4944C89.887 24.4944 90.8004 24.3237 91.6435 23.9825C92.5068 23.6412 93.3499 23.1594 94.173 22.5371L95.3775 24.3438C94.9961 24.6851 94.5444 24.9962 94.0224 25.2773C93.5205 25.5583 92.9685 25.7992 92.3662 26C91.7841 26.1807 91.1718 26.3212 90.5294 26.4216C89.887 26.542 89.2446 26.6023 88.6022 26.6023C87.1768 26.6023 85.872 26.4115 84.6875 26.0301C83.5232 25.6688 82.5295 25.1368 81.7064 24.4341C80.8833 23.7114 80.2409 22.8281 79.7792 21.7842C79.3376 20.7403 79.1167 19.5358 79.1167 18.1707C79.1167 16.8257 79.3275 15.6313 79.7491 14.5874C80.1907 13.5234 80.793 12.6401 81.5558 11.9375C82.3388 11.2148 83.2622 10.6727 84.3262 10.3114C85.3902 9.92996 86.5646 9.73925 87.8494 9.73925C89.0539 9.73925 90.1881 9.91992 91.2521 10.2813C92.316 10.6426 93.2395 11.1746 94.0224 11.8772C94.8053 12.5598 95.4277 13.3929 95.8894 14.3766C96.3511 15.3602 96.582 16.4744 96.582 17.7191V19.8269H83.7239C83.9648 21.4932 84.537 22.6876 85.4404 23.4103C86.3638 24.133 87.5181 24.4944 88.9033 24.4944ZM87.8494 11.6966C87.2672 11.6966 86.7252 11.807 86.2233 12.0278C85.7214 12.2486 85.2798 12.5999 84.8983 13.0817C84.537 13.5635 84.2359 14.1859 83.995 14.9487C83.7741 15.7116 83.6537 16.635 83.6336 17.7191H92.0651C92.0651 16.6752 91.9447 15.7718 91.7038 15.0089C91.4629 14.2461 91.1417 13.6238 90.7402 13.142C90.3587 12.6401 89.907 12.2787 89.3851 12.0579C88.8832 11.817 88.3713 11.6966 87.8494 11.6966ZM104.258 12.4494V23.8921H108.022C108.705 23.8921 109.327 23.7917 109.889 23.591C110.472 23.3702 110.963 23.0289 111.365 22.5672C111.786 22.1054 112.108 21.5132 112.328 20.7905C112.569 20.0678 112.69 19.1946 112.69 18.1707C112.69 17.1469 112.569 16.2737 112.328 15.551C112.108 14.8283 111.786 14.236 111.365 13.7743C110.963 13.3126 110.472 12.9814 109.889 12.7806C109.327 12.5598 108.705 12.4494 108.022 12.4494H104.258ZM108.022 10.3415C109.408 10.3415 110.662 10.5222 111.786 10.8835C112.931 11.2449 113.904 11.7668 114.707 12.4494C115.51 13.1319 116.123 13.955 116.544 14.9186C116.986 15.8822 117.207 16.9662 117.207 18.1707C117.207 19.3752 116.986 20.4593 116.544 21.4229C116.123 22.3865 115.51 23.2096 114.707 23.8921C113.904 24.5747 112.931 25.0966 111.786 25.458C110.662 25.8193 109.408 26 108.022 26H104.258V31.4203H100.043V10.3415H108.022ZM136.014 14.7078C136.014 15.4707 135.733 16.1231 135.171 16.6651C134.629 17.2071 133.756 17.5585 132.551 17.7191C133.997 17.9399 135.081 18.4016 135.803 19.1042C136.546 19.7868 136.917 20.5797 136.917 21.4831C136.917 22.1255 136.767 22.7278 136.466 23.2899C136.185 23.8319 135.743 24.3037 135.141 24.7052C134.539 25.1067 133.776 25.4279 132.852 25.6688C131.929 25.8896 130.825 26 129.54 26H120.657V10.3415H128.637C129.921 10.3415 131.025 10.4619 131.949 10.7028C132.872 10.9237 133.635 11.2348 134.237 11.6363C134.84 12.0178 135.281 12.4795 135.562 13.0215C135.864 13.5435 136.014 14.1056 136.014 14.7078ZM129.54 23.8921C130.443 23.8921 131.146 23.6613 131.648 23.1995C132.15 22.7378 132.401 22.1657 132.401 21.4831C132.401 20.8006 132.15 20.2284 131.648 19.7667C131.146 19.305 130.443 19.0741 129.54 19.0741H124.872V23.8921H129.54ZM128.637 16.9662C129.54 16.9662 130.243 16.7454 130.744 16.3038C131.246 15.842 131.497 15.3101 131.497 14.7078C131.497 14.1056 131.246 13.5836 130.744 13.142C130.243 12.6802 129.54 12.4494 128.637 12.4494H124.872V16.9662H128.637ZM157.105 10.3415V26H152.889V14.2561H152.588L145.662 26H140.242V10.3415H144.457V22.0854H144.758L151.684 10.3415H157.105ZM169.758 9.73925C170.4 9.73925 171.043 9.79947 171.685 9.91992C172.327 10.0203 172.94 10.1709 173.522 10.3716C174.124 10.5523 174.676 10.7831 175.178 11.0642C175.7 11.3452 176.152 11.6564 176.533 11.9977L175.329 13.8044C174.505 13.1821 173.662 12.7003 172.799 12.359C171.956 12.0178 171.043 11.8471 170.059 11.8471C169.336 11.8471 168.674 11.9676 168.071 12.2085C167.469 12.4293 166.947 12.8007 166.506 13.3226C166.064 13.8245 165.713 14.4769 165.452 15.2799C165.211 16.0829 165.09 17.0465 165.09 18.1707C165.09 19.2949 165.211 20.2585 165.452 21.0615C165.713 21.8645 166.074 22.527 166.536 23.049C166.997 23.5508 167.549 23.9222 168.192 24.1631C168.854 24.384 169.577 24.4944 170.36 24.4944C171.344 24.4944 172.257 24.3237 173.1 23.9825C173.963 23.6412 174.807 23.1594 175.63 22.5371L176.834 24.3438C176.453 24.6851 176.001 24.9962 175.479 25.2773C174.977 25.5583 174.425 25.7992 173.823 26C173.241 26.1807 172.628 26.3212 171.986 26.4216C171.344 26.542 170.701 26.6023 170.059 26.6023C168.634 26.6023 167.329 26.4115 166.144 26.0301C164.98 25.6688 163.986 25.1368 163.163 24.4341C162.34 23.7114 161.698 22.8281 161.236 21.7842C160.794 20.7403 160.573 19.5358 160.573 18.1707C160.573 16.8257 160.794 15.6313 161.236 14.5874C161.698 13.5234 162.33 12.6401 163.133 11.9375C163.936 11.2148 164.9 10.6727 166.024 10.3114C167.148 9.92996 168.393 9.73925 169.758 9.73925Z" fill="#1A1A1A"/>
<path d="M51.3105 2C54.0719 2.00003 56.3105 4.2386 56.3105 7V27.9395C56.3105 30.7009 54.0719 32.9394 51.3105 32.9395H5C2.23858 32.9395 0 30.7009 0 27.9395V7C1.00635e-06 4.23858 2.23858 2 5 2H51.3105ZM4.9502 6.9502V27.7422H9.25684V18.6826H21.4355V27.7422H25.7422V6.9502H21.4355V16.4551H9.25684V6.9502H4.9502ZM29.8955 6.9502V27.7422H35.5391L46.6777 10.8115H46.9746V27.7422H51.2812V6.9502H45.6377L34.499 23.8809H34.2021V6.9502H29.8955Z" fill="#A60000"/>
</svg>
